<?xml version="1.0" encoding="UTF-8"?>
<svg id="Capa_1" data-name="Capa 1" xmlns="http://www.w3.org/2000/svg" viewBox="0 0 1000 1000">
  <defs>
    <style>
      .cls-1, .cls-2, .cls-3 {
        fill: #fff;
      }

      .cls-2 {
        fill-rule: evenodd;
      }

      .cls-4 {
        fill: #539e43;
      }

      .cls-5 {
        fill: #32d6fc;
      }

      .cls-6 {
        fill: #3178c6;
      }

      .cls-7 {
        fill: #f7df1e;
      }

      .cls-3 {
        stroke: #fff;
        stroke-miterlimit: 6.25;
        stroke-width: 1.56px;
      }
    </style>
  </defs>
  <rect class="cls-5" y="500" width="500" height="500"/>
  <rect class="cls-7" width="500" height="500"/>
  <rect class="cls-4" x="500" y="500" width="500" height="500"/>
  <rect class="cls-6" x="500" width="500" height="500"/>
  <path d="M336.76,403.57c10,17,24,29,47,29,20,0,33-10,33-24,0-16-13-22-35-32l-12-5c-35-15-58-33-58-72,0-36,27-64,70-64,31,0,53,11,68,39l-37,24c-8-15-17-21-31-21s-23,9-23,21c0,14,9,20,30,29l12,5c41,18,64,35,64,76s-34,67-80,67-74-21-88-49l40-23Zm-170,4c8,13,14,25,31,25,16,0,26-6,26-30V236.57h48v164c0,50-29,72-72,72-39,0-61-20-72-44l39-21Z"/>
  <path class="cls-2" d="M802.39,409.86v51.77c9.41,4.64,19.43,7.91,29.76,9.7,11.94,2.2,24.07,3.29,36.21,3.24,11.84,.06,23.65-1.14,35.23-3.56,10.4-2.1,20.33-6.11,29.28-11.81,8.31-5.36,15.15-12.7,19.93-21.36,8.55-17.93,9.68-38.51,3.14-57.27-2.76-7.01-6.87-13.42-12.1-18.85-5.61-5.77-11.99-10.75-18.95-14.8-8.01-4.69-16.34-8.83-24.92-12.39-6.75-2.8-12.82-5.52-18.22-8.17-4.8-2.3-9.39-5-13.72-8.08-3.39-2.38-6.34-5.34-8.71-8.74-2.04-3.09-3.11-6.72-3.05-10.43-.05-3.41,.9-6.76,2.73-9.63,1.99-3.01,4.64-5.53,7.74-7.36,3.8-2.24,7.94-3.85,12.25-4.78,5.29-1.18,10.71-1.74,16.13-1.69,4.56,.02,9.12,.34,13.63,.98,4.88,.66,9.7,1.66,14.44,2.99,4.82,1.34,9.54,3.03,14.11,5.06,4.43,1.98,8.68,4.36,12.67,7.12v-48.31c-8.32-3.15-16.94-5.41-25.73-6.75-10.62-1.54-21.33-2.27-32.06-2.18-11.72-.06-23.42,1.27-34.83,3.97-10.31,2.36-20.12,6.55-28.95,12.37-8.21,5.47-14.98,12.82-19.76,21.45-5.06,9.58-7.57,20.3-7.27,31.13-.37,14.32,4.34,28.31,13.31,39.48,11,12.39,24.88,21.88,40.41,27.66,7.09,2.92,13.7,5.79,19.83,8.59,5.53,2.46,10.85,5.38,15.89,8.72,4.07,2.65,7.65,5.99,10.56,9.87,2.57,3.52,3.93,7.78,3.88,12.13,.02,3.26-.81,6.48-2.43,9.31-1.79,3.05-4.32,5.61-7.34,7.44-3.78,2.31-7.92,3.97-12.25,4.93-5.64,1.26-11.4,1.85-17.18,1.77-11.33-.02-22.58-2.02-33.22-5.91-11.12-4.01-21.44-9.99-30.46-17.63Zm-86.97-128.88h67.49v-42.64h-188.19v42.64h67.19v189.89h53.51v-189.89Z"/>
  <path class="cls-1" d="M750,921.72c-4.73,0-9.15-1.26-13.25-3.47l-41.96-24.93c-6.31-3.47-3.16-4.73-1.26-5.36,8.52-2.84,10.1-3.47,18.93-8.52,.95-.63,2.21-.32,3.16,.32l32.18,19.25c1.26,.63,2.84,.63,3.79,0l125.89-72.88c1.26-.63,1.89-1.89,1.89-3.47v-145.45c0-1.58-.63-2.84-1.89-3.47l-125.89-72.57c-1.26-.63-2.84-.63-3.79,0l-125.89,72.57c-1.26,.63-1.89,2.21-1.89,3.47v145.45c0,1.26,.63,2.84,1.89,3.47l34.39,19.88c18.62,9.47,30.29-1.58,30.29-12.62v-143.56c0-1.89,1.58-3.79,3.79-3.79h16.09c1.89,0,3.79,1.58,3.79,3.79v143.56c0,24.93-13.57,39.44-37.23,39.44-7.26,0-12.94,0-29.03-7.89l-33.13-18.93c-8.2-4.73-13.25-13.57-13.25-23.03v-145.45c0-9.47,5.05-18.3,13.25-23.03l125.89-72.88c7.89-4.42,18.62-4.42,26.5,0l125.89,72.88c8.2,4.73,13.25,13.57,13.25,23.03v145.45c0,9.47-5.05,18.3-13.25,23.03l-125.89,72.88c-4.1,1.89-8.83,2.84-13.25,2.84Zm38.81-100.02c-55.21,0-66.57-25.24-66.57-46.7,0-1.89,1.58-3.79,3.79-3.79h16.41c1.89,0,3.47,1.26,3.47,3.16,2.52,16.72,9.78,24.93,43.22,24.93,26.5,0,37.86-5.99,37.86-20.19,0-8.2-3.16-14.2-44.49-18.3-34.39-3.47-55.85-11.04-55.85-38.49,0-25.56,21.45-40.7,57.42-40.7,40.39,0,60.26,13.88,62.79,44.17,0,.95-.32,1.89-.95,2.84-.63,.63-1.58,1.26-2.52,1.26h-16.41c-1.58,0-3.16-1.26-3.47-2.84-3.79-17.35-13.57-23.03-39.44-23.03-29.03,0-32.5,10.1-32.5,17.67,0,9.15,4.1,11.99,43.22,17.04,38.81,5.05,57.11,12.3,57.11,39.44-.32,27.76-23.03,43.54-63.1,43.54h0Z"/>
  <g id="SVGRepo_iconCarrier" data-name="SVGRepo iconCarrier">
    <path class="cls-3" d="M377.85,687.77h0c-4.23-1.44-8.48-2.79-12.77-4.03,.71-2.89,1.37-5.8,1.97-8.73,9.67-47.04,3.35-84.94-18.24-97.41-20.67-11.97-54.56,.5-88.76,30.33-3.36,2.94-6.66,5.97-9.88,9.09-2.15-2.07-4.35-4.1-6.61-6.08-35.84-31.89-71.76-45.33-93.32-32.81-20.67,12-26.81,47.62-18.1,92.2,.87,4.41,1.85,8.8,2.93,13.17-5.08,1.45-9.99,2.99-14.69,4.63-41.96,14.67-68.8,37.68-68.8,61.54s28.8,49.37,72.56,64.36c3.55,1.21,7.13,2.33,10.75,3.36-1.17,4.68-2.21,9.41-3.12,14.19-8.27,43.82-1.82,78.6,18.81,90.52,21.3,12.31,57.04-.34,91.88-30.84,2.76-2.41,5.51-4.96,8.27-7.65,3.48,3.37,7.07,6.64,10.75,9.8,33.73,29.08,67.04,40.83,87.63,28.88,21.29-12.35,28.21-49.72,19.22-95.18-.69-3.47-1.48-7.02-2.38-10.63,2.51-.74,4.97-1.51,7.38-2.31,45.47-15.1,75.09-39.53,75.09-64.48-.02-23.97-27.71-47.13-70.57-61.92Zm-106.65-67.03c29.29-25.55,56.67-35.64,69.15-28.43h0c13.29,7.68,18.45,38.65,10.1,79.27-.55,2.65-1.15,5.28-1.79,7.91-17.48-3.98-35.21-6.78-53.06-8.4-10.22-14.72-21.43-28.74-33.54-41.96,2.97-2.88,6-5.67,9.11-8.39h.02Zm-102.45,149.31c3.59,6.94,7.34,13.8,11.25,20.58,3.98,6.91,8.14,13.72,12.46,20.43-12.28-1.34-24.49-3.3-36.57-5.89,3.51-11.34,7.82-23.12,12.86-35.11Zm0-39.95c-4.96-11.73-9.16-23.27-12.61-34.42,11.33-2.54,23.4-4.61,35.98-6.18-4.22,6.58-8.27,13.26-12.17,20.03s-7.64,13.63-11.23,20.57h.02Zm9.01,19.98c5.22-10.9,10.85-21.58,16.88-32.06h0c6.02-10.47,12.44-20.7,19.24-30.7,11.81-.89,23.91-1.36,36.14-1.36s24.4,.47,36.2,1.37c6.73,9.97,13.1,20.17,19.12,30.59s11.72,21.06,17.1,31.91c-5.31,10.93-11,21.67-17.06,32.19h0c-6.01,10.47-12.35,20.73-19.01,30.79-11.78,.83-23.97,1.28-36.38,1.28s-24.36-.39-35.93-1.14c-6.85-10.03-13.32-20.3-19.39-30.83-6.08-10.53-11.72-21.21-16.93-32.04h.02Zm142.29,40.43c4-6.93,7.83-13.96,11.51-21.07h0c5.04,11.43,9.49,23.1,13.33,34.99-12.22,2.75-24.58,4.86-37.03,6.32,4.2-6.66,8.26-13.41,12.19-20.24Zm11.34-60.41c-3.66-6.97-7.47-13.86-11.42-20.67h0c-3.86-6.71-7.88-13.34-12.06-19.89,12.66,1.6,24.8,3.74,36.19,6.34-3.66,11.61-7.9,23.03-12.71,34.22Zm-81.22-88.83h0c8.26,9.02,16.05,18.45,23.35,28.26-15.62-.74-31.26-.74-46.91,0,7.71-10.2,15.61-19.67,23.55-28.26Zm-91.41-48.46c13.28-7.7,42.63,3.31,73.58,30.81,1.98,1.76,3.97,3.6,5.95,5.51-12.17,13.21-23.46,27.22-33.78,41.92-17.81,1.61-35.5,4.37-52.96,8.27-1.01-4.06-1.92-8.14-2.73-12.25h0c-7.48-38.22-2.53-67.03,9.94-74.26Zm-19.35,208.21c-3.31-.94-6.57-1.96-9.8-3.07-19.35-6.61-35.33-15.24-46.3-24.64-9.82-8.42-14.8-16.83-14.8-23.64,0-14.48,21.54-32.94,57.47-45.47,4.51-1.57,9.07-3.01,13.66-4.31,5.34,17.15,11.8,33.93,19.35,50.22-7.64,16.52-14.18,33.53-19.58,50.91Zm91.87,77.44c-15.4,13.49-30.83,23.06-44.43,27.88h0c-12.22,4.32-21.95,4.45-27.83,1.05-12.52-7.23-17.72-35.17-10.62-72.63,.84-4.41,1.81-8.82,2.89-13.23,17.63,3.8,35.5,6.39,53.48,7.76,10.42,14.78,21.8,28.87,34.06,42.16-2.46,2.42-4.99,4.75-7.56,7.01Zm19.36-19.2c-8.04-8.69-16.05-18.3-23.88-28.64,7.6,.3,15.34,.45,23.21,.45s16.09-.17,23.97-.53c-7.28,9.96-15.06,19.55-23.31,28.72h0Zm102.94,23.64c-2.36,12.76-7.12,21.28-13,24.69-12.51,7.26-39.25-2.17-68.09-27.05-3.31-2.84-6.61-5.89-9.98-9.09,12.02-13.35,23.13-27.49,33.26-42.33,18.08-1.53,36.04-4.31,53.74-8.31,.81,3.27,1.53,6.48,2.15,9.62h0c3.98,20.09,4.55,38.26,1.92,52.47Zm14.38-84.85h0c-2.17,.72-4.4,1.41-6.66,2.09-5.55-17.23-12.26-34.06-20.1-50.38,7.54-16.1,13.99-32.69,19.31-49.65,4.06,1.18,8,2.42,11.8,3.74,36.72,12.67,59.13,31.42,59.13,45.82,0,15.38-24.2,35.33-63.47,48.38Z"/>
    <path class="cls-3" d="M249.99,785.18c19.63,.06,35.6-15.8,35.66-35.43,.06-19.63-15.8-35.6-35.43-35.66-19.63-.06-35.6,15.8-35.66,35.43,0,.04,0,.08,0,.12-.04,19.59,15.81,35.51,35.4,35.55,.01,0,.02,0,.03,0Z"/>
  </g>
</svg>